# xmcd
#
# Track frame offsets: 
#        150
#        1767
#        18557
#        39759
#        66962
#        88578
#        116047
#        125307
#        130255
#        142917
#        166117
#        206207
#        223723
#
# Disc length: 3455 seconds
#
# Revision: 0
# Processed by: cddbd v1.5.2PL0 Copyright (c) Steve Scherf et al.
# Submitted via: ExactAudioCopy v1.0b1
#
DISCID=ad0d7d0d
DTITLE=Bill Wyman's Rhythm Kings - Hayes, Beck Theatre
DYEAR=2005
DGENRE=Blues
TTITLE0=Introduction
TTITLE1=Let The Good Times Roll
TTITLE2=Jump, Jive and Wail
TTITLE3=Melody
TTITLE4=Walking One and Only
TTITLE5=I Put A Spell On You
TTITLE6=Band introduction
TTITLE7=Hole In The Wall
TTITLE8=Radio Announcement
TTITLE9=Motorvatin’ Mama
TTITLE10=Anyway The Wind Blows
TTITLE11=Baby Workout
TTITLE12=Tear It Up
EXTD=
EXTT0=
EXTT1=
EXTT2=
EXTT3=
EXTT4=
EXTT5=
EXTT6=
EXTT7=
EXTT8=
EXTT9=
EXTT10=
EXTT11=
EXTT12=
PLAYORDER=
